<svg width="159" height="159" viewBox="0 0 159 159" fill="none" xmlns="http://www.w3.org/2000/svg">
<path d="M79.336 0C35.59 0 0 35.59 0 79.336C0 123.082 35.59 158.672 79.336 158.672C123.082 158.672 158.676 123.082 158.676 79.336C158.676 35.59 123.09 0 79.336 0V0ZM79.336 141.87C44.852 141.87 16.801 113.815 16.801 79.335C16.801 44.851 44.856 16.8 79.336 16.8C113.816 16.8 141.875 44.851 141.875 79.335C141.875 113.815 113.82 141.87 79.336 141.87ZM79.336 49.393C87.3399 49.393 94.856 52.5141 100.508 58.1664C103.789 61.4476 109.106 61.4437 112.387 58.1664C115.668 54.8852 115.668 49.5648 112.387 46.2834C103.563 37.4514 91.825 32.5924 79.336 32.5844C66.856 32.5844 55.117 37.4438 46.289 46.2754C28.066 64.4984 28.066 94.1544 46.289 112.384C55.3984 121.494 67.375 126.044 79.34 126.044C91.309 126.044 103.281 121.49 112.391 112.384C115.672 109.107 115.672 103.787 112.391 100.505C109.11 97.2241 103.793 97.2242 100.512 100.505C88.848 112.177 69.848 112.177 58.172 100.505C46.496 88.8294 46.496 69.8294 58.172 58.1534C63.8165 52.505 71.34 49.3917 79.336 49.3917V49.393Z" fill="black"/>
</svg>
