<svg width="93" height="85" viewBox="0 0 93 85" fill="none" xmlns="http://www.w3.org/2000/svg">
<circle cx="45.5" cy="40.5" r="7.5" fill="black"/>
<path d="M67 31.9996C66.9938 33.5889 66.6775 35.1566 66.0742 36.5886C65.6823 37.5389 65.458 38.5681 65.4141 39.6175C65.3702 40.6669 65.5075 41.7158 65.8184 42.7045C66.1292 43.6932 66.6074 44.6023 67.2256 45.3798C67.8438 46.1573 68.59 46.788 69.4216 47.236C70.2531 47.6839 71.1537 47.9403 72.0719 47.9904C72.9901 48.0406 73.908 47.8836 74.7731 47.5284C75.6382 47.1731 76.4336 46.6267 77.114 45.9201C77.7943 45.2136 78.3462 44.3608 78.7381 43.4105C80.2242 39.846 80.9968 35.948 81 31.9996C81 14.3548 65.299 0 46 0C26.701 0 11 14.3548 11 31.9996C11.0031 35.9484 11.7757 39.8467 13.2619 43.4115C14.0537 45.3307 15.4802 46.8119 17.2275 47.5291C18.9749 48.2463 20.9 48.1409 22.5793 47.236C24.2586 46.331 25.5547 44.7008 26.1822 42.7038C26.8098 40.7069 26.7176 38.5068 25.9258 36.5876C25.3223 35.156 25.006 33.5886 25 31.9996C25 23.3267 34.6162 15.9998 46 15.9998C57.3838 15.9998 67 23.3267 67 31.9996Z" fill="black"/>
<path d="M80.3074 54H69.4202C65.4092 54 63.1172 54.62 61.9712 55.86L51.084 67.02C49.365 69.0867 46.5 72.1867 46.5 72.1867C46.5 72.1867 44.208 69.0867 41.916 67.02L31.0288 55.86C29.8828 54.4133 27.5908 54 23.5798 54H12.6926C8.6816 54 6.3896 54.8267 5.81659 56.2733L0.0865329 82.52C-0.486473 84.1733 1.80554 85 6.38959 85H14.4117C18.4227 85 20.7147 84.1733 21.2877 82.7267L23.5798 71.1533C24.1528 68.88 23.5798 65.9867 23.5798 65.9867C23.5798 65.9867 26.4448 69.2933 28.1638 71.1533L35.0399 78.18C36.1859 79.42 39.0509 80.04 42.4889 80.04H49.365C53.3761 80.04 55.6681 79.42 56.8141 78.18L63.6902 71.1533C65.4092 69.2933 68.2742 65.9867 68.2742 65.9867C68.2742 65.9867 67.7012 68.88 68.2742 71.1533L70.5662 82.7267C71.1393 84.1733 73.4313 85 77.4423 85H86.6104C91.1945 85 93.4865 84.1733 92.9135 82.52L87.1834 56.2733C86.6104 54.8267 84.3184 54 80.3074 54Z" fill="black"/>
</svg>
