<svg width="88" height="90" viewBox="0 0 88 90" fill="none" xmlns="http://www.w3.org/2000/svg">
<path d="M63.042 31.016C63.041 27.2542 61.9246 23.5772 59.834 20.4499C57.7433 17.3225 54.7723 14.8853 51.2966 13.4465C47.8208 12.0076 43.9965 11.6316 40.3071 12.3661C36.6177 13.1006 33.229 14.9126 30.5694 17.5729C27.9097 20.2332 26.0987 23.6225 25.3651 27.312C24.6316 31.0016 25.0086 34.8258 26.4484 38.3012C27.8882 41.7765 30.3261 44.7469 33.454 46.8367C36.5819 48.9266 40.2592 50.042 44.021 50.042C49.0648 50.0362 53.9002 48.0296 57.4662 44.4627C61.0322 40.8957 63.0375 36.0598 63.042 31.016V31.016ZM30 31.016C30.001 28.2431 30.8242 25.5328 32.3654 23.2277C33.9067 20.9226 36.0968 19.1263 38.6589 18.0659C41.221 17.0054 44.04 16.7285 46.7594 17.27C49.4789 17.8116 51.9767 19.1474 53.9371 21.1084C55.8975 23.0695 57.2324 25.5678 57.773 28.2875C58.3136 31.0072 58.0356 33.8261 56.9742 36.3878C55.9129 38.9495 54.1158 41.139 51.8101 42.6794C49.5045 44.2198 46.7939 45.042 44.021 45.042C40.3028 45.0378 36.7383 43.5585 34.1096 40.9289C31.4809 38.2993 30.0029 34.7342 30 31.016Z" fill="black"/>
<path d="M75.744 69.0685C69.273 67.4317 62.6621 66.4092 55.999 66.0145L68.022 51.1525C71.7521 46.543 74.1008 40.9716 74.7963 35.0828C75.4918 29.1941 74.5056 23.2288 71.9519 17.8772C69.3982 12.5256 65.3814 8.00648 60.3663 4.84274C55.3511 1.67901 49.5427 0 43.613 0C37.6833 0 31.8749 1.67901 26.8597 4.84274C21.8446 8.00648 17.8278 12.5256 15.2741 17.8772C12.7204 23.2288 11.7342 29.1941 12.4297 35.0828C13.1252 40.9716 15.4739 46.543 19.204 51.1525L31.227 66.0145C24.5633 66.4093 17.9517 67.4318 11.48 69.0685C3.756 71.2035 0 74.0045 0 77.6335C0 87.1525 27.413 89.6975 43.613 89.6975C59.813 89.6975 87.226 87.1525 87.226 77.6335C87.226 74.0045 83.47 71.2035 75.744 69.0685ZM24.944 12.7395C29.7259 7.9627 36.1578 5.20194 42.9145 5.02602C49.6712 4.8501 56.2381 7.27241 61.2621 11.7939C66.2861 16.3154 69.3845 22.5916 69.919 29.3294C70.4535 36.0673 68.3833 42.7535 64.135 48.0105L43.613 73.3735L23.091 48.0105C18.9772 42.9456 16.8895 36.5342 17.2322 30.0181C17.5749 23.502 20.3236 17.3449 24.946 12.7395H24.944ZM43.613 84.6975C17.885 84.6975 5.563 79.6135 4.995 77.6765C5.134 77.1825 7.014 75.3865 13.609 73.6765C20.6586 72.0227 27.8519 71.0558 35.088 70.7895L41.67 78.9225C41.9044 79.212 42.2005 79.4454 42.5366 79.6058C42.8728 79.7661 43.2405 79.8493 43.613 79.8493C43.9855 79.8493 44.3532 79.7661 44.6894 79.6058C45.0255 79.4454 45.3216 79.212 45.556 78.9225L52.138 70.7895C59.3727 71.055 66.5646 72.0208 73.613 73.6735C80.213 75.3865 82.09 77.1825 82.229 77.5905C81.663 79.6135 69.341 84.6975 43.613 84.6975Z" fill="black"/>
</svg>
